<svg width="255.74" height="28.348" viewBox="0 0 255.74 28.348" xmlns="http://www.w3.org/2000/svg">
<g id="svgGroup" stroke-linecap="round" fill-rule="evenodd" font-size="9pt" stroke="#ffffff" stroke-width="0.25mm" fill="#ffffff" style="stroke:#ffffff;stroke-width:0.25mm;fill:#ffffff">
<path d="M 127.376 27.74 L 126.16 27.74 L 126.16 7.942 L 127.148 7.942 L 127.148 15.884 L 126.692 15.884 A 12.629 12.629 0 0 1 126.905 13.513 A 10 10 0 0 1 127.471 11.59 A 7.101 7.101 0 0 1 128.789 9.475 A 6.566 6.566 0 0 1 129.808 8.569 A 5.757 5.757 0 0 1 131.945 7.635 Q 132.783 7.448 133.76 7.448 L 133.836 7.448 A 8.435 8.435 0 0 1 135.552 7.613 Q 136.793 7.871 137.731 8.531 A 6.269 6.269 0 0 1 139.839 11.108 A 7.707 7.707 0 0 1 140.011 11.514 Q 140.752 13.414 140.752 15.884 L 140.144 15.884 A 12.936 12.936 0 0 1 140.352 13.513 A 10.19 10.19 0 0 1 140.904 11.59 A 6.829 6.829 0 0 1 142.335 9.346 A 6.504 6.504 0 0 1 143.241 8.569 A 5.879 5.879 0 0 1 145.434 7.626 A 8.419 8.419 0 0 1 147.212 7.448 L 147.288 7.448 A 8.448 8.448 0 0 1 149.039 7.62 Q 150.226 7.871 151.143 8.491 A 5.357 5.357 0 0 1 151.202 8.531 A 6.357 6.357 0 0 1 153.371 11.165 A 7.775 7.775 0 0 1 153.52 11.514 A 10.347 10.347 0 0 1 154.135 13.832 A 13.859 13.859 0 0 1 154.28 15.884 L 154.28 27.74 L 153.064 27.74 L 153.064 15.58 A 10.392 10.392 0 0 0 152.841 13.367 A 7.233 7.233 0 0 0 151.601 10.564 A 4.724 4.724 0 0 0 148.603 8.719 A 7.365 7.365 0 0 0 147.174 8.588 A 7.185 7.185 0 0 0 145.188 8.848 A 5.324 5.324 0 0 0 142.5 10.602 A 7.117 7.117 0 0 0 140.991 13.892 A 9.924 9.924 0 0 0 140.828 15.732 L 140.828 27.74 L 139.612 27.74 L 139.612 15.58 A 10.392 10.392 0 0 0 139.389 13.367 A 7.233 7.233 0 0 0 138.149 10.564 A 4.724 4.724 0 0 0 135.151 8.719 A 7.365 7.365 0 0 0 133.722 8.588 A 7.185 7.185 0 0 0 131.736 8.848 A 5.324 5.324 0 0 0 129.048 10.602 A 7.117 7.117 0 0 0 127.539 13.892 A 9.924 9.924 0 0 0 127.376 15.732 L 127.376 27.74 Z M 0 17.974 L 0 17.746 Q 0 15.884 0.608 14.06 Q 1.216 12.236 2.413 10.716 Q 3.61 9.196 5.396 8.284 A 8.233 8.233 0 0 1 7.918 7.49 A 10.749 10.749 0 0 1 9.538 7.372 A 10.556 10.556 0 0 1 11.888 7.621 A 7.815 7.815 0 0 1 14.497 8.721 Q 16.53 10.07 17.613 12.198 Q 18.696 14.326 18.696 16.758 L 17.936 14.592 L 17.936 0 L 19.152 0 L 19.152 27.74 L 18.164 27.74 L 18.164 18.962 L 18.772 18.962 Q 18.772 21.508 17.651 23.655 Q 16.53 25.802 14.459 27.075 A 8.499 8.499 0 0 1 11.324 28.211 A 11.232 11.232 0 0 1 9.538 28.348 A 10.162 10.162 0 0 1 7.259 28.102 A 8.252 8.252 0 0 1 5.472 27.474 Q 3.686 26.6 2.47 25.118 Q 1.254 23.636 0.627 21.793 Q 0 19.95 0 17.974 Z M 64.068 27.74 L 62.852 27.74 L 62.852 7.98 L 63.84 7.98 L 63.84 15.884 L 63.384 15.884 Q 63.384 13.452 64.258 11.552 Q 65.132 9.652 66.823 8.55 A 6.567 6.567 0 0 1 69.051 7.644 Q 69.935 7.454 70.956 7.448 A 11.339 11.339 0 0 1 71.022 7.448 L 71.098 7.448 A 9.526 9.526 0 0 1 73.348 7.698 A 6.156 6.156 0 0 1 76.741 9.766 Q 78.599 12.01 78.658 15.644 A 14.772 14.772 0 0 1 78.66 15.884 L 78.66 27.74 L 77.444 27.74 L 77.444 15.58 A 9.606 9.606 0 0 0 77.212 13.409 A 6.694 6.694 0 0 0 75.791 10.526 Q 74.138 8.588 70.984 8.588 A 8.317 8.317 0 0 0 68.798 8.86 A 6.033 6.033 0 0 0 65.93 10.564 A 6.724 6.724 0 0 0 64.2 14.119 A 9.469 9.469 0 0 0 64.068 15.732 L 64.068 27.74 Z M 95.532 22.344 L 96.748 22.344 A 4.506 4.506 0 0 0 98.121 25.638 A 5.692 5.692 0 0 0 98.211 25.726 Q 99.674 27.132 102.942 27.132 A 11.835 11.835 0 0 0 104.638 27.019 Q 105.49 26.896 106.17 26.636 A 4.337 4.337 0 0 0 107.673 25.707 A 4.929 4.929 0 0 0 108.735 24.232 A 4.474 4.474 0 0 0 109.136 22.344 A 4.14 4.14 0 0 0 108.95 21.069 A 3.259 3.259 0 0 0 107.692 19.38 A 6.558 6.558 0 0 0 105.781 18.46 A 9.146 9.146 0 0 0 104.082 18.126 L 101.65 17.86 A 9.115 9.115 0 0 1 99.98 17.504 Q 98.664 17.082 97.774 16.264 Q 96.368 14.972 96.368 12.844 Q 96.368 11.362 97.128 10.127 A 5.164 5.164 0 0 1 98.594 8.597 A 6.658 6.658 0 0 1 99.37 8.132 Q 100.787 7.405 102.76 7.373 A 11.278 11.278 0 0 1 102.942 7.372 A 9.212 9.212 0 0 1 104.982 7.586 A 6.359 6.359 0 0 1 107.692 8.892 Q 109.516 10.412 109.516 12.844 L 108.3 12.844 Q 108.338 10.982 106.932 9.747 A 4.598 4.598 0 0 0 105.232 8.821 Q 104.546 8.608 103.721 8.542 A 9.721 9.721 0 0 0 102.942 8.512 Q 101.216 8.512 100.063 9.027 A 3.789 3.789 0 0 0 98.876 9.842 A 4.653 4.653 0 0 0 97.928 11.229 A 4.196 4.196 0 0 0 97.584 12.92 A 3.485 3.485 0 0 0 98.615 15.413 A 4.525 4.525 0 0 0 98.648 15.447 A 3.98 3.98 0 0 0 99.983 16.326 Q 100.754 16.646 101.764 16.758 L 104.196 17.024 A 10.134 10.134 0 0 1 106.443 17.503 A 7.86 7.86 0 0 1 108.566 18.601 A 4.26 4.26 0 0 1 110.308 21.665 A 6.32 6.32 0 0 1 110.352 22.42 Q 110.352 24.016 109.497 25.346 A 5.629 5.629 0 0 1 107.877 26.976 A 7.268 7.268 0 0 1 107.008 27.474 Q 105.374 28.272 102.942 28.272 Q 100.45 28.272 98.773 27.466 A 5.746 5.746 0 0 1 97.432 26.581 A 5.542 5.542 0 0 1 95.883 24.374 A 5.74 5.74 0 0 1 95.532 22.344 Z M 167.618 16.264 L 174.268 16.264 L 174.268 17.328 L 167.39 17.328 A 9.271 9.271 0 0 0 165.745 17.464 Q 164.141 17.754 163.134 18.658 A 4.393 4.393 0 0 0 161.675 21.655 A 6.099 6.099 0 0 0 161.652 22.192 A 5.446 5.446 0 0 0 161.882 23.815 A 4.229 4.229 0 0 0 163.286 25.878 A 5.846 5.846 0 0 0 166.058 27.101 A 8.004 8.004 0 0 0 167.39 27.208 Q 168.986 27.208 170.506 26.6 A 5.608 5.608 0 0 0 172.733 24.965 A 6.942 6.942 0 0 0 173.071 24.529 A 5.46 5.46 0 0 0 173.838 22.936 Q 174.054 22.229 174.14 21.388 A 11.076 11.076 0 0 0 174.192 20.596 L 174.8 21.204 A 9.371 9.371 0 0 1 174.583 22.982 Q 174.3 24.226 173.66 25.175 Q 172.596 26.752 170.943 27.512 Q 169.29 28.272 167.314 28.272 A 8.627 8.627 0 0 1 164.785 27.909 A 7.867 7.867 0 0 1 163.875 27.569 Q 162.298 26.866 161.367 25.498 A 5.28 5.28 0 0 1 160.547 23.448 A 7.209 7.209 0 0 1 160.436 22.154 A 6.297 6.297 0 0 1 160.65 20.482 A 5.196 5.196 0 0 1 161.291 19.038 A 5.358 5.358 0 0 1 163.17 17.278 A 6.691 6.691 0 0 1 163.742 16.986 A 7.646 7.646 0 0 1 165.449 16.456 Q 166.256 16.3 167.184 16.271 A 13.788 13.788 0 0 1 167.618 16.264 Z M 184.604 27.74 L 183.388 27.74 L 183.388 7.98 L 184.376 7.98 L 184.376 16.454 L 183.996 16.454 Q 183.996 13.717 184.776 11.844 A 6.573 6.573 0 0 1 185.915 9.994 A 5.628 5.628 0 0 1 188.1 8.513 Q 189.018 8.149 190.173 7.979 A 15.231 15.231 0 0 1 192.394 7.828 L 193.04 7.828 L 193.04 8.968 L 192.09 8.968 Q 188.328 8.968 186.466 10.849 Q 184.924 12.407 184.659 15.228 A 13.116 13.116 0 0 0 184.604 16.454 L 184.604 27.74 Z M 36.252 17.974 L 36.252 17.746 Q 36.252 15.77 36.936 13.908 Q 37.62 12.046 38.912 10.583 A 9.574 9.574 0 0 1 42.037 8.26 A 10.969 10.969 0 0 1 42.066 8.246 Q 43.928 7.372 46.322 7.372 Q 48.716 7.372 50.578 8.246 Q 52.44 9.12 53.732 10.583 Q 55.024 12.046 55.708 13.908 Q 56.392 15.77 56.392 17.746 L 56.392 17.974 Q 56.392 19.912 55.727 21.755 Q 55.062 23.598 53.789 25.08 A 9.355 9.355 0 0 1 50.868 27.341 A 10.794 10.794 0 0 1 50.635 27.455 A 9.154 9.154 0 0 1 47.964 28.238 A 11.816 11.816 0 0 1 46.322 28.348 Q 43.89 28.348 42.009 27.455 A 9.6 9.6 0 0 1 39.397 25.658 A 8.993 8.993 0 0 1 38.855 25.08 Q 37.582 23.598 36.917 21.755 Q 36.252 19.912 36.252 17.974 Z M 215.232 17.974 L 215.232 17.746 Q 215.232 15.77 215.916 13.908 Q 216.6 12.046 217.892 10.583 A 9.574 9.574 0 0 1 221.017 8.26 A 10.969 10.969 0 0 1 221.046 8.246 Q 222.908 7.372 225.302 7.372 Q 227.696 7.372 229.558 8.246 Q 231.42 9.12 232.712 10.583 Q 234.004 12.046 234.688 13.908 Q 235.372 15.77 235.372 17.746 L 235.372 17.974 Q 235.372 19.912 234.707 21.755 Q 234.042 23.598 232.769 25.08 A 9.355 9.355 0 0 1 229.848 27.341 A 10.794 10.794 0 0 1 229.615 27.455 A 9.154 9.154 0 0 1 226.944 28.238 A 11.816 11.816 0 0 1 225.302 28.348 Q 222.87 28.348 220.989 27.455 A 9.6 9.6 0 0 1 218.377 25.658 A 8.993 8.993 0 0 1 217.835 25.08 Q 216.562 23.598 215.897 21.755 Q 215.232 19.912 215.232 17.974 Z M 212.8 27.74 L 211.242 27.74 L 202.274 18.392 L 199.158 18.392 L 209.114 7.98 L 210.596 7.98 L 201.818 17.138 L 201.78 16.264 L 212.8 27.74 Z M 175.408 27.74 L 174.42 27.74 L 174.42 21.812 L 174.192 21.812 L 174.192 14.364 A 7.744 7.744 0 0 0 174.033 12.744 Q 173.728 11.322 172.843 10.374 A 3.883 3.883 0 0 0 171.43 9.439 Q 170.167 8.93 168.226 8.93 Q 167.238 8.93 166.269 8.987 A 67.216 67.216 0 0 0 165.329 9.049 A 55.9 55.9 0 0 0 164.445 9.12 Q 163.59 9.196 162.868 9.31 L 162.868 8.17 Q 163.628 8.056 164.426 7.961 Q 165.224 7.866 166.041 7.828 Q 166.858 7.79 167.618 7.79 A 17.92 17.92 0 0 1 169.346 7.868 Q 170.201 7.951 170.914 8.123 A 7.038 7.038 0 0 1 172.273 8.588 A 5.444 5.444 0 0 1 173.645 9.495 A 4.55 4.55 0 0 1 174.686 10.906 Q 175.408 12.426 175.408 14.668 L 175.408 27.74 Z M 199.424 27.74 L 198.208 27.74 L 198.208 0 L 199.424 0 L 199.424 27.74 Z M 46.322 27.208 A 10.376 10.376 0 0 0 48.554 26.98 A 7.444 7.444 0 0 0 51.167 25.878 Q 53.124 24.548 54.15 22.42 Q 55.176 20.292 55.176 17.86 A 10.504 10.504 0 0 0 54.446 13.932 A 10.068 10.068 0 0 0 54.131 13.224 Q 53.086 11.096 51.11 9.804 Q 49.134 8.512 46.322 8.512 A 9.968 9.968 0 0 0 43.93 8.787 A 7.753 7.753 0 0 0 41.553 9.804 Q 39.558 11.096 38.513 13.224 A 10.338 10.338 0 0 0 37.469 17.704 A 11.955 11.955 0 0 0 37.468 17.86 Q 37.468 20.292 38.494 22.42 Q 39.52 24.548 41.496 25.878 A 7.664 7.664 0 0 0 44.426 27.044 A 10.476 10.476 0 0 0 46.322 27.208 Z M 225.302 27.208 A 10.376 10.376 0 0 0 227.534 26.98 A 7.444 7.444 0 0 0 230.147 25.878 Q 232.104 24.548 233.13 22.42 Q 234.156 20.292 234.156 17.86 A 10.504 10.504 0 0 0 233.426 13.932 A 10.068 10.068 0 0 0 233.111 13.224 Q 232.066 11.096 230.09 9.804 Q 228.114 8.512 225.302 8.512 A 9.968 9.968 0 0 0 222.91 8.787 A 7.753 7.753 0 0 0 220.533 9.804 Q 218.538 11.096 217.493 13.224 A 10.338 10.338 0 0 0 216.449 17.704 A 11.955 11.955 0 0 0 216.448 17.86 Q 216.448 20.292 217.474 22.42 Q 218.5 24.548 220.476 25.878 A 7.664 7.664 0 0 0 223.406 27.044 A 10.476 10.476 0 0 0 225.302 27.208 Z M 18.012 18.886 L 18.012 16.834 Q 18.012 14.63 16.986 12.73 Q 15.96 10.83 14.079 9.671 A 7.719 7.719 0 0 0 11.197 8.631 A 10.178 10.178 0 0 0 9.614 8.512 A 9.195 9.195 0 0 0 7.461 8.752 A 6.849 6.849 0 0 0 5.016 9.861 Q 3.154 11.21 2.185 13.357 Q 1.216 15.504 1.216 17.86 A 11.148 11.148 0 0 0 1.772 21.408 A 10.363 10.363 0 0 0 2.204 22.496 Q 3.192 24.624 5.073 25.916 A 7.281 7.281 0 0 0 8.103 27.094 A 9.679 9.679 0 0 0 9.614 27.208 Q 12.122 27.208 14.022 26.106 Q 15.922 25.004 16.967 23.123 A 8.369 8.369 0 0 0 17.987 19.611 A 10.151 10.151 0 0 0 18.012 18.886 Z M 247.494 27.74 L 246.278 27.74 L 238.868 7.98 L 240.122 7.98 L 247.494 27.74 Z M 249.09 27.74 L 247.912 27.74 L 254.524 7.98 L 255.74 7.98 L 249.09 27.74 Z M 29.716 27.74 L 28.5 27.74 L 28.5 7.98 L 29.716 7.98 L 29.716 27.74 Z M 88.996 27.74 L 87.78 27.74 L 87.78 7.98 L 88.996 7.98 L 88.996 27.74 Z M 29.716 7.98 L 25.08 7.98 L 25.08 9.12 L 29.716 9.12 L 29.716 7.98 Z M 88.996 7.98 L 84.36 7.98 L 84.36 9.12 L 88.996 9.12 L 88.996 7.98 Z M 27.885 3.304 A 1.741 1.741 0 0 0 28.272 3.344 Q 28.918 3.344 29.241 3.002 A 1.141 1.141 0 0 0 29.519 2.484 A 1.63 1.63 0 0 0 29.564 2.09 A 1.653 1.653 0 0 0 29.559 1.96 A 1.26 1.26 0 0 0 29.241 1.197 A 1.007 1.007 0 0 0 29.14 1.099 Q 28.948 0.937 28.678 0.875 A 1.641 1.641 0 0 0 28.31 0.836 Q 27.664 0.836 27.322 1.197 A 1.213 1.213 0 0 0 27.06 1.616 A 1.364 1.364 0 0 0 26.98 2.09 A 1.632 1.632 0 0 0 27.004 2.377 A 1.145 1.145 0 0 0 27.322 3.002 Q 27.546 3.226 27.885 3.304 Z M 87.165 3.304 A 1.741 1.741 0 0 0 87.552 3.344 Q 88.198 3.344 88.521 3.002 A 1.141 1.141 0 0 0 88.799 2.484 A 1.63 1.63 0 0 0 88.844 2.09 A 1.653 1.653 0 0 0 88.839 1.96 A 1.26 1.26 0 0 0 88.521 1.197 A 1.007 1.007 0 0 0 88.42 1.099 Q 88.228 0.937 87.958 0.875 A 1.641 1.641 0 0 0 87.59 0.836 Q 86.944 0.836 86.602 1.197 A 1.213 1.213 0 0 0 86.34 1.616 A 1.364 1.364 0 0 0 86.26 2.09 A 1.632 1.632 0 0 0 86.284 2.377 A 1.145 1.145 0 0 0 86.602 3.002 Q 86.826 3.226 87.165 3.304 Z M 248.71 27.74 L 246.734 27.74 L 246.734 26.6 L 248.71 26.6 L 248.71 27.74 Z" vector-effect="non-scaling-stroke"/>
</g></svg>